<svg width="34" height="34" viewBox="0 0 34 34" fill="none" xmlns="http://www.w3.org/2000/svg">
<path d="M33.4262 14.0237L18.1223 0.422875C17.812 0.150315 17.413 0 17 0C16.587 0 16.188 0.150315 15.8777 0.422875L0.573784 14.0237C0.313678 14.2538 0.130256 14.5579 0.0481779 14.8953C-0.0338998 15.2327 -0.0106972 15.5871 0.114666 15.9109C0.237979 16.2304 0.454932 16.5052 0.73711 16.6993C1.01929 16.8935 1.35353 16.9979 1.69607 16.9989H3.39651V32.2999C3.39651 32.7508 3.57566 33.1832 3.89456 33.502C4.21345 33.8209 4.64596 34 5.09695 34H28.9031C29.354 34 29.7866 33.8209 30.1054 33.502C30.4243 33.1832 30.6035 32.7508 30.6035 32.2999V16.9989H32.3039C32.6465 16.9979 32.9807 16.8935 33.2629 16.6993C33.5451 16.5052 33.762 16.2304 33.8853 15.9109C34.0107 15.5871 34.0339 15.2327 33.9518 14.8953C33.8697 14.5579 33.6863 14.2538 33.4262 14.0237ZM22.0482 30.5749L12.0482 30.5998V25.3441C12.0482 24.6903 13.0626 22.3937 13.3815 22.0749C14.7148 20.4403 16.0482 20.1134 17.0482 20.1134C18.0482 20.1134 19.3815 20.4403 20.7148 22.0749C21.0337 22.3937 22.0482 24.6903 22.0482 25.3441V30.5749ZM27.2026 30.5998H22.1013H27.8318C27.8318 29.2471 28.1593 17.9554 27.2026 16.9989C26.2459 16.0424 17.2307 14.8953 15.8777 14.8953C14.5248 14.8953 7.75406 15.7428 6.79738 16.6993C5.8407 17.6558 6.16822 29.2471 6.16822 30.5998H11.8987H6.79738V16.9989H27.2026V30.5998ZM6.16822 13.5987H27.8318L17 11.4423L6.16822 13.5987Z" fill="#728FCE"/>
<path d="M22 31C18.6667 31 19.4281 31 16.6667 31C13.9053 31 14.3333 31 12 31C12 28.789 12 27.2188 12 24.8125C12.7162 21.8309 14.6667 20 17 20C19.3333 20 21.2795 21.8578 22 24.8125C22 26.875 22 28.8194 22 31Z" fill="#F6BE00"/>
</svg>
