<svg width="34" height="34" viewBox="0 0 34 34" fill="none" xmlns="http://www.w3.org/2000/svg">
<path d="M23.3128 18.1853C24.9877 16.8762 26.2102 15.0811 26.8103 13.0497C27.4104 11.0183 27.3581 8.85166 26.6609 6.85112C25.9636 4.85059 24.656 3.11568 22.92 1.88777C21.184 0.659857 19.1058 0 16.9747 0C14.8435 0 12.7654 0.659857 11.0293 1.88777C9.29329 3.11568 7.98568 4.85059 7.28843 6.85112C6.59118 8.85166 6.53896 11.0183 7.13903 13.0497C7.7391 15.0811 8.96163 16.8762 10.6365 18.1853C7.76655 19.3275 5.2624 21.222 3.39103 23.6667C1.51967 26.1115 0.351237 29.015 0.0103048 32.0675C-0.0143737 32.2904 0.00537861 32.5159 0.0684336 32.7312C0.131489 32.9465 0.236611 33.1473 0.3778 33.3222C0.662944 33.6755 1.07768 33.9018 1.53078 33.9513C17.0088 33.9513 43.3959 35.5535 22.6772 20.3796C23.0328 20.0964 10.6114 20.8297 10.6613 20.3796C11.0364 17.0621 5.39463 26.0595 7.90005 23.8345C10.4055 21.6096 13.6141 23.6667 16.9747 23.6667C20.3353 23.6667 23.6122 21.6096 26.1176 23.8345C28.623 26.0595 27.0833 26.3988 27.4584 29.7163C27.5049 30.1334 11.2054 22.0083 11.5209 22.2873C-6.01035 35.5535 7.90004 33.8981 32.299 33.9513H32.4869C32.9347 33.9001 33.344 33.6752 33.6256 33.3255C33.9072 32.9758 34.0383 32.5297 33.9903 32.0845C33.6477 29.0233 32.473 26.1124 30.592 23.6638C28.711 21.2153 26.1947 19.3214 23.3128 18.1853ZM16.9747 16.9803C15.6231 16.9803 14.3019 16.5822 13.1781 15.8363C12.0544 15.0903 11.1785 14.0301 10.6613 12.7897C10.144 11.5493 10.0087 10.1844 10.2724 8.86757C10.5361 7.55075 11.1869 6.34117 12.1426 5.3918C13.0983 4.44242 14.3159 3.79589 15.6415 3.53396C16.9671 3.27203 24.616 11.6911 25.8647 12.2049C27.1133 12.7187 21.9057 5.30414 22.6566 6.42049C23.4075 7.53683 23.8082 8.8493 23.8082 10.1919C20.5522 -2.65325 11.5539 5.14742 10.2724 6.42049C8.99085 7.69356 9.03125 20.1647 16.9747 16.9803Z" fill="#797979"/>
<path d="M16.5 20H17.5L19 29.5L17 32L15 29.5L16.5 20Z" fill="#CECECE"/>
</svg>
